# File created by Blade
# Date/Time:  Mon Nov 18 18:33:23 2013
# Frame Rate: 100.000 fps
#------------------------------------------------------
:FULLY-SPECIFIED
:DEGREES
291
root 52.652954 -3.684383 52.110982 -3.281590 0.026914 -125.424735
Spine 12.293028 -0.677785 -0.492883
Spine1 3.279384 1.509561 -1.288725
Spine2 0.991783 -0.919438 -1.405590
NeckDummy 0.001249 -0.129502 -0.029866 -1.478513 1.149173 -0.416397
Neck 16.254104 1.905068 27.599055
Head -0.275054 0.337258 0.215669 -34.577402 -3.791556 -0.511574
LeftShoulderDummy -0.057245 -0.116478 0.028556 -1.457439 1.029707 -0.197718
LeftShoulder 7.173417 -3.293187 13.604743
LeftArm 21.169566 50.683919 30.038237
LeftForeArm 89.363433
LeftForeArmRoll -37.131981
LeftHand -9.471533 5.417844 -4.642584
LeftHandThumb1 16.908002 12.645099
LeftHandIndex1 14.206148 43.363879
LeftHandPinky1 13.628359 47.993352
RightShoulderDummy -0.036466 -0.104541 0.053234 -1.495855 -1.148863 0.397752
RightShoulder 5.293398 4.761110 16.735701
RightArm -40.278557 69.421705 -3.174710
RightForeArm 111.459489
RightForeArmRoll 3.391089
RightHand -17.776280 -16.085810 11.193144
RightHandThumb1 -1.287525 13.261823
RightHandIndex1 14.018625 59.948418
RightHandPinky1 18.997749 69.019610
LeftUpLeg 4.268041 22.100693 -35.266560
LeftLeg 60.329392
LeftFoot 0.624004 -1.053043 -0.933457 -12.216893 9.998833 -14.967019
LeftToeBase -1.407764
RightUpLeg 10.831284 12.124789 -25.460153
RightLeg 65.991657
RightFoot -0.541387 0.455175 0.255765 -0.900386 7.630680 -33.618265
RightToeBase -0.947971
292
root 52.640959 -3.658249 52.116908 -3.283203 0.043136 -125.403479
Spine 12.277578 -0.680806 -0.498533
Spine1 3.285058 1.503493 -1.303356
Spine2 1.005992 -0.938220 -1.406100
NeckDummy 0.000942 -0.129035 -0.030354 -1.476272 1.150853 -0.414367
Neck 16.283710 1.925883 27.630617
Head -0.274801 0.336363 0.216815 -34.612078 -3.768019 -0.499680
LeftShoulderDummy -0.057374 -0.115871 0.027982 -1.455129 1.031347 -0.195710
LeftShoulder 7.192868 -3.292157 13.615930
LeftArm 21.130684 50.706201 30.036248
LeftForeArm 89.333342
LeftForeArmRoll -37.173809
LeftHand -9.542677 5.551209 -4.682866
LeftHandThumb1 16.780243 12.577090
LeftHandIndex1 14.342694 43.182476
LeftHandPinky1 13.684697 47.814706
RightShoulderDummy -0.036943 -0.104013 0.052822 -1.493387 -1.150679 0.394810
RightShoulder 5.355343 4.761802 16.754604
RightArm -40.195765 69.434079 -3.032317
RightForeArm 111.409100
RightForeArmRoll 3.363695
RightHand -17.743446 -16.335282 11.231672
RightHandThumb1 -1.229559 13.354802
RightHandIndex1 13.997826 60.229284
RightHandPinky1 18.960251 69.616801
LeftUpLeg 4.315871 22.029781 -35.181057
LeftLeg 60.195737
LeftFoot 0.641524 -1.056127 -0.942165 -12.196737 10.023401 -14.917339
LeftToeBase -1.340278
RightUpLeg 10.815515 12.128557 -25.380055
RightLeg 65.848088
RightFoot -0.538357 0.455558 0.256906 -0.856577 7.633935 -33.484126
RightToeBase -1.047973
293
root 52.634168 -3.628485 52.112712 -3.329424 0.013707 -125.443889
Spine 12.322892 -0.691953 -0.480175
Spine1 3.293894 1.508462 -1.261953
Spine2 0.988039 -0.920008 -1.416792
NeckDummy 0.001168 -0.129688 -0.029796 -1.481444 1.155919 -0.411142
Neck 16.337734 1.953600 27.633121
Head -0.274097 0.334696 0.218821 -34.599381 -3.789151 -0.515950
LeftShoulderDummy -0.056626 -0.116278 0.028477 -1.460659 1.037301 -0.194180
LeftShoulder 7.211252 -3.298842 13.630493
LeftArm 21.038362 50.718736 30.010651
LeftForeArm 89.290964
LeftForeArmRoll -37.226083
LeftHand -9.576895 5.500938 -4.655355
LeftHandThumb1 16.780975 12.575565
LeftHandIndex1 14.319688 43.266535
LeftHandPinky1 13.692734 47.949696
RightShoulderDummy -0.036406 -0.104653 0.053881 -1.498217 -1.156518 0.392224
RightShoulder 5.371554 4.772317 16.729240
RightArm -40.414383 69.444229 -3.236422
RightForeArm 111.382150
RightForeArmRoll 3.383613
RightHand -17.753339 -16.484896 11.233582
RightHandThumb1 -1.040350 13.378342
RightHandIndex1 14.036084 60.402535
RightHandPinky1 19.052517 69.404596
LeftUpLeg 4.363084 22.072245 -35.019307
LeftLeg 60.074029
LeftFoot 0.636794 -1.064148 -0.947170 -12.191468 9.935553 -14.907635
LeftToeBase -1.267831
RightUpLeg 10.741342 12.021751 -25.235594
RightLeg 65.678399
RightFoot -0.534425 0.456320 0.249492 -0.851586 7.705812 -33.450986
RightToeBase -1.005926
294
root 52.622148 -3.601903 52.119143 -3.316335 0.041535 -125.410286
Spine 12.300805 -0.709220 -0.488155
Spine1 3.290975 1.494791 -1.289191
Spine2 0.999164 -0.930782 -1.435011
NeckDummy 0.001063 -0.128454 -0.030107 -1.475633 1.171837 -0.415120
Neck 16.349046 1.978411 27.628900
Head -0.273630 0.333131 0.217884 -34.601360 -3.770500 -0.508962
LeftShoulderDummy -0.057372 -0.115154 0.027475 -1.455170 1.053327 -0.196052
LeftShoulder 7.247676 -3.297893 13.682582
LeftArm 20.951172 50.707535 30.027913
LeftForeArm 89.253616
LeftForeArmRoll -37.230466
LeftHand -9.553867 5.340108 -4.653549
LeftHandThumb1 16.885119 12.590745
LeftHandIndex1 14.315398 43.448254
LeftHandPinky1 13.680502 48.046349
RightShoulderDummy -0.036867 -0.103267 0.053688 -1.492343 -1.172406 0.394985
RightShoulder 5.331412 4.792526 16.706010
RightArm -40.692538 69.488708 -3.497853
RightForeArm 111.361710
RightForeArmRoll 3.385411
RightHand -17.760059 -16.361630 11.097216
RightHandThumb1 -1.124598 13.419717
RightHandIndex1 14.083003 60.295153
RightHandPinky1 19.032824 69.635168
LeftUpLeg 4.400616 21.994537 -34.934529
LeftLeg 59.928257
LeftFoot 0.629761 -1.060915 -0.945873 -12.237636 9.921318 -14.872695
LeftToeBase -1.231976
RightUpLeg 10.737278 12.051514 -25.158967
RightLeg 65.528067
RightFoot -0.533602 0.457983 0.249535 -0.878336 7.742029 -33.385356
RightToeBase -0.975023
295
root 52.614420 -3.574936 52.121065 -3.308792 0.035614 -125.396046
Spine 12.291139 -0.717774 -0.489453
Spine1 3.292070 1.494965 -1.292699
Spine2 0.994412 -0.925613 -1.436822
NeckDummy 0.001300 -0.128639 -0.030091 -1.481777 1.172155 -0.415259
Neck 16.393067 1.988753 27.622961
Head -0.272550 0.334480 0.217455 -34.593629 -3.749256 -0.504343
LeftShoulderDummy -0.055847 -0.114987 0.028208 -1.460293 1.053582 -0.200888
LeftShoulder 7.311224 -3.271241 13.677261
LeftArm 20.887834 50.737465 30.003783
LeftForeArm 89.248771
LeftForeArmRoll -37.325591
LeftHand -9.514013 5.334906 -4.660109
LeftHandThumb1 16.872479 12.607396
LeftHandIndex1 14.242355 43.235524
LeftHandPinky1 13.652705 47.988663
RightShoulderDummy -0.036709 -0.103400 0.053919 -1.498551 -1.172419 0.395007
RightShoulder 5.347870 4.830656 16.706277
RightArm -40.844686 69.517618 -3.588034
RightForeArm 111.320968
RightForeArmRoll 3.372126
RightHand -17.873289 -16.642872 11.083656
RightHandThumb1 -1.199494 13.582042
RightHandIndex1 14.348214 60.523255
RightHandPinky1 18.994552 70.164730
LeftUpLeg 4.461319 21.979505 -34.847838
LeftLeg 59.771131
LeftFoot 0.628914 -1.056008 -0.934386 -12.230271 10.011528 -14.787061
LeftToeBase -1.328179
RightUpLeg 10.752019 12.016464 -25.074397
RightLeg 65.361684
RightFoot -0.543749 0.460721 0.247867 -0.882752 7.750803 -33.338502
RightToeBase -0.963393
296
root 52.605044 -3.546908 52.122512 -3.303341 0.025044 -125.375728
Spine 12.302552 -0.734930 -0.475368
Spine1 3.290285 1.492996 -1.265949
Spine2 0.944625 -0.874558 -1.511092
NeckDummy 0.001593 -0.128562 -0.028369 -1.470751 1.221840 -0.409266
Neck 16.456940 1.984341 27.558343
Head -0.269373 0.333719 0.217277 -34.613322 -3.717139 -0.471953
LeftShoulderDummy -0.055902 -0.114938 0.028308 -1.449613 1.103018 -0.192466
LeftShoulder 7.304397 -3.296634 13.655687
LeftArm 20.686176 50.786942 29.876491
LeftForeArm 89.223916
LeftForeArmRoll -37.339353
LeftHand -9.632446 5.395153 -4.603943
LeftHandThumb1 16.683349 12.487919
LeftHandIndex1 14.328019 43.183610
LeftHandPinky1 13.624643 47.843281
RightShoulderDummy -0.036411 -0.103332 0.056289 -1.487262 -1.221902 0.387672
RightShoulder 5.336970 4.860189 16.718528
RightArm -41.086045 69.485980 -3.838229
RightForeArm 111.350285
RightForeArmRoll 3.576347
RightHand -17.859444 -16.132007 11.126736
RightHandThumb1 -1.040192 13.243780
RightHandIndex1 13.935065 60.079206
RightHandPinky1 18.823358 69.165239
LeftUpLeg 4.475543 21.955319 -34.758033
LeftLeg 59.665087
LeftFoot 0.627733 -1.063485 -0.938038 -12.225176 9.901696 -14.796788
LeftToeBase -1.256071
RightUpLeg 10.760674 12.000372 -24.957509
RightLeg 65.171149
RightFoot -0.534304 0.456194 0.243286 -0.896878 7.793545 -33.260889
RightToeBase -0.989951
